<svg width="20" height="20" viewBox="0 0 20 20" fill="none" xmlns="http://www.w3.org/2000/svg">
<path d="M4.16667 14.1667H3.33334C2.89131 14.1667 2.46739 13.9911 2.15483 13.6785C1.84227 13.366 1.66667 12.942 1.66667 12.5V4.16667C1.66667 3.72464 1.84227 3.30072 2.15483 2.98816C2.46739 2.67559 2.89131 2.5 3.33334 2.5H16.6667C17.1087 2.5 17.5326 2.67559 17.8452 2.98816C18.1577 3.30072 18.3333 3.72464 18.3333 4.16667V12.5C18.3333 12.942 18.1577 13.366 17.8452 13.6785C17.5326 13.9911 17.1087 14.1667 16.6667 14.1667H15.8333" stroke="white" stroke-width="2" stroke-linecap="round" stroke-linejoin="round"/>
<path d="M10 12.5L14.1667 17.5H5.83334L10 12.5Z" stroke="white" stroke-width="2" stroke-linecap="round" stroke-linejoin="round"/>
</svg>
