<svg width="24" height="24" viewBox="0 0 24 24" fill="none" xmlns="http://www.w3.org/2000/svg">
<path d="M20.8415 13.845V7.65976C20.8415 7.39454 20.7362 7.14019 20.5487 6.95265C20.3611 6.76512 20.1068 6.65976 19.8415 6.65976H11.3415L8.84155 3.65976H2.84155C2.57633 3.65976 2.32198 3.76512 2.13444 3.95265C1.94691 4.14019 1.84155 4.39454 1.84155 4.65976V20.6598C1.84155 20.925 1.94691 21.1793 2.13444 21.3669C2.32198 21.5544 2.57633 21.6598 2.84155 21.6598H14.7537C14.7537 21.6598 13.7319 18.5756 14.4717 17.6481C15.2116 16.7206 17.0524 16.9098 17.0524 16.9098L20.8415 13.845Z" fill="white"/>
<path d="M20 14L18 14.4845V19.25" stroke="#1ED760" stroke-width="1.66667" stroke-linecap="round" stroke-linejoin="round"/>
<path d="M16 21C17.1046 21 18 20.1046 18 19C18 17.8954 17.1046 17 16 17C14.8954 17 14 17.8954 14 19C14 20.1046 14.8954 21 16 21Z" stroke="#1ED760" stroke-width="1.66667" stroke-linecap="round" stroke-linejoin="round"/>
</svg>
