<svg width="20" height="20" viewBox="0 0 20 20" fill="none" xmlns="http://www.w3.org/2000/svg">
<path d="M4.16667 15V10V15ZM4.16667 10.8333H2.5C2.27899 10.8333 2.06702 10.9211 1.91074 11.0774C1.75446 11.2337 1.66667 11.4457 1.66667 11.6667V15C1.66667 15.221 1.75446 15.433 1.91074 15.5893C2.06702 15.7455 2.27899 15.8333 2.5 15.8333H4.16667V10.8333Z" stroke="white" stroke-linecap="round" stroke-linejoin="round"/>
<path d="M15.8333 10V15V10ZM15.8333 10.8333H17.5C17.721 10.8333 17.933 10.9211 18.0893 11.0774C18.2455 11.2337 18.3333 11.4457 18.3333 11.6667V15C18.3333 15.221 18.2455 15.433 18.0893 15.5893C17.933 15.7455 17.721 15.8333 17.5 15.8333H15.8333V10.8333Z" stroke="white" stroke-linecap="round" stroke-linejoin="round"/>
<path d="M4.16667 15V9.99999C4.16667 6.77832 6.77833 4.16666 10 4.16666C13.2217 4.16666 15.8333 6.77832 15.8333 9.99999V15M4.16667 10.8333V15.8333M15.8333 10.8333V15.8333" stroke="white" stroke-linecap="round" stroke-linejoin="round"/>
<path d="M6.66667 13.3333H8.33333L9.16667 10.8333L10.8333 15.8333L11.6667 13.3333H13.3333" stroke="#1BF869" stroke-linecap="round" stroke-linejoin="round"/>
</svg>
