<svg width="176" height="42" viewBox="0 0 176 42" fill="none" xmlns="http://www.w3.org/2000/svg">
<path fill-rule="evenodd" clip-rule="evenodd" d="M34.9356 4.54059C36.0617 4.26718 36.7534 3.13062 36.4806 2.00202C36.2078 0.873407 35.0738 0.180127 33.9478 0.453533L23.3988 3.0149C22.4577 3.24341 21.7949 4.08787 21.7949 5.05843V19.4999C19.5551 17.4821 16.5925 16.2543 13.3438 16.2543C6.35913 16.2543 0.69697 21.9295 0.69697 28.9302C0.69697 35.9309 6.35913 41.6061 13.3438 41.6061C19.5816 41.6061 24.7646 37.0796 25.8017 31.1251C25.923 30.8591 25.9906 30.5634 25.9906 30.2518V6.71252L34.9356 4.54059ZM13.3438 20.4596C18.0112 20.4596 21.7949 24.252 21.7949 28.9302C21.7949 33.6084 18.0112 37.4008 13.3438 37.4008C8.67631 37.4008 4.89259 33.6084 4.89259 28.9302C4.89259 24.252 8.67631 20.4596 13.3438 20.4596Z" fill="#1BF869"/>
<path d="M31.8072 13.6074C31.1986 13.6074 30.6884 13.419 30.2767 13.0422C29.8649 12.6475 29.6591 12.163 29.6591 11.5889C29.6591 11.0147 29.8649 10.5392 30.2767 10.1624C30.6884 9.76769 31.1986 9.57033 31.8072 9.57033C32.4159 9.57033 32.9261 9.75872 33.3378 10.1355C33.7495 10.4944 33.9554 10.9519 33.9554 11.5081C33.9554 12.1002 33.7495 12.6026 33.3378 13.0153C32.944 13.41 32.4338 13.6074 31.8072 13.6074Z" fill="#1BF869"/>
<path d="M30.1156 15.9758H33.4721V30.3477H30.1156V15.9758Z" fill="#1BF869"/>
<path d="M38.8978 30.0786C40.0077 30.3836 41.1444 30.5361 42.308 30.5361C44.313 30.5361 45.8972 30.1324 47.0608 29.325C48.2244 28.5176 48.8062 27.441 48.8062 26.0954C48.8062 25.0726 48.5377 24.2832 48.0006 23.7269C47.4815 23.1707 46.855 22.776 46.121 22.5427C45.387 22.3095 44.4472 22.1031 43.3015 21.9237C42.1559 21.7264 41.3056 21.52 40.7506 21.3047C40.2136 21.0715 39.9451 20.6857 39.9451 20.1474C39.9451 19.663 40.1957 19.2772 40.6969 18.9901C41.216 18.6851 41.9679 18.5326 42.9525 18.5326C44.4741 18.5326 45.8435 18.8914 47.0608 19.6091L48.3497 17.0523C47.7232 16.6755 46.9176 16.3795 45.933 16.1642C44.9485 15.9309 43.9639 15.8143 42.9793 15.8143C41.046 15.8143 39.5065 16.227 38.3608 17.0523C37.233 17.8598 36.6691 18.9453 36.6691 20.3089C36.6691 21.3496 36.9376 22.1659 37.4747 22.758C38.0296 23.3322 38.6741 23.7359 39.408 23.9692C40.1599 24.2024 41.1265 24.4088 42.308 24.5882C43.4358 24.7676 44.2503 24.956 44.7516 25.1534C45.2707 25.3507 45.5303 25.7006 45.5303 26.203C45.5303 27.2616 44.5278 27.7909 42.5228 27.7909C41.6457 27.7909 40.7506 27.6653 39.8376 27.4141C38.9426 27.145 38.1728 26.7951 37.5284 26.3645L36.2395 28.9213C36.9018 29.3878 37.7879 29.7736 38.8978 30.0786Z" fill="#1BF869"/>
<path d="M58.2755 30.5361C56.7897 30.5361 55.456 30.2221 54.2746 29.5941C53.0931 28.9661 52.1712 28.0959 51.5088 26.9835C50.8465 25.8531 50.5153 24.5792 50.5153 23.1618C50.5153 21.7443 50.8465 20.4794 51.5088 19.3669C52.1712 18.2545 53.0841 17.3843 54.2477 16.7563C55.4292 16.1283 56.7718 15.8143 58.2755 15.8143C59.6897 15.8143 60.9249 16.1014 61.9811 16.6755C63.0551 17.2497 63.8607 18.0751 64.3977 19.1516L61.82 20.6588C61.4082 19.9949 60.8891 19.5015 60.2625 19.1785C59.6539 18.8376 58.9826 18.6672 58.2487 18.6672C56.9956 18.6672 55.9573 19.0798 55.1338 19.9052C54.3104 20.7126 53.8986 21.7981 53.8986 23.1618C53.8986 24.5254 54.3014 25.6199 55.107 26.4452C55.9304 27.2526 56.9777 27.6563 58.2487 27.6563C58.9826 27.6563 59.6539 27.4949 60.2625 27.1719C60.8891 26.831 61.4082 26.3286 61.82 25.6647L64.3977 27.1719C63.8428 28.2484 63.0283 29.0828 61.9542 29.6749C60.898 30.249 59.6718 30.5361 58.2755 30.5361Z" fill="#1BF869"/>
<path fill-rule="evenodd" clip-rule="evenodd" d="M69.6135 29.5941C70.7771 30.2221 72.0839 30.5361 73.5339 30.5361C75.0018 30.5361 76.3176 30.2221 77.4812 29.5941C78.6447 28.9661 79.5488 28.0959 80.1932 26.9835C80.8555 25.8531 81.1867 24.5792 81.1867 23.1618C81.1867 21.7443 80.8555 20.4794 80.1932 19.3669C79.5488 18.2545 78.6447 17.3843 77.4812 16.7563C76.3176 16.1283 75.0018 15.8143 73.5339 15.8143C72.0839 15.8143 70.7771 16.1283 69.6135 16.7563C68.4499 17.3843 67.537 18.2545 66.8746 19.3669C66.2302 20.4794 65.908 21.7443 65.908 23.1618C65.908 24.5792 66.2302 25.8531 66.8746 26.9835C67.537 28.0959 68.4499 28.9661 69.6135 29.5941ZM73.5339 27.6563C74.7691 27.6563 75.7895 27.2437 76.595 26.4183C77.4006 25.593 77.8034 24.5074 77.8034 23.1618C77.8034 21.8161 77.4006 20.7305 76.595 19.9052C75.7895 19.0798 74.7691 18.6672 73.5339 18.6672C72.2987 18.6672 71.2784 19.0798 70.4728 19.9052C69.6851 20.7305 69.2913 21.8161 69.2913 23.1618C69.2913 24.5074 69.6851 25.593 70.4728 26.4183C71.2784 27.2437 72.2987 27.6563 73.5339 27.6563Z" fill="#1BF869"/>
<path fill-rule="evenodd" clip-rule="evenodd" d="M99.873 11.5081C101.502 11.5081 102.916 11.7772 104.116 12.3155C105.333 12.8538 106.264 13.6253 106.908 14.6301C107.553 15.6349 107.875 16.8281 107.875 18.2096C107.875 19.5733 107.553 20.7664 106.908 21.7892C106.264 22.7939 105.333 23.5655 104.116 24.1037C102.916 24.642 101.502 24.9111 99.873 24.9111H95.6303V30.3477H92.1396V11.5081H99.873ZM103.176 20.9817C102.388 21.6277 101.233 21.9506 99.7118 21.9506H95.6303V14.4686H99.7118C101.233 14.4686 102.388 14.7916 103.176 15.4375C103.963 16.0834 104.357 17.0075 104.357 18.2096C104.357 19.4118 103.963 20.3358 103.176 20.9817Z" fill="#1BF869"/>
<path d="M114.657 10.3777H111.301V30.3477H114.657V10.3777Z" fill="#1BF869"/>
<path fill-rule="evenodd" clip-rule="evenodd" d="M124.54 15.8143C126.653 15.8143 128.264 16.3257 129.374 17.3484C130.502 18.3532 131.065 19.8783 131.065 21.9237V30.3477H127.897V28.5983C127.485 29.2263 126.894 29.7108 126.125 30.0517C125.373 30.3746 124.46 30.5361 123.386 30.5361C122.312 30.5361 121.372 30.3567 120.566 29.9978C119.761 29.621 119.134 29.1097 118.687 28.4638C118.257 27.7999 118.042 27.0553 118.042 26.2299C118.042 24.9381 118.517 23.9064 119.465 23.1348C120.432 22.3454 121.945 21.9506 124.003 21.9506H127.709V21.7353C127.709 20.7305 127.405 19.959 126.796 19.4207C126.205 18.8825 125.319 18.6133 124.138 18.6133C123.332 18.6133 122.536 18.7389 121.748 18.9901C120.978 19.2413 120.325 19.5912 119.788 20.0398L118.472 17.5906C119.224 17.0165 120.128 16.5769 121.184 16.2718C122.24 15.9668 123.359 15.8143 124.54 15.8143ZM126.313 27.5218C125.668 27.8986 124.925 28.087 124.084 28.087C123.225 28.087 122.553 27.9075 122.07 27.5487C121.587 27.1898 121.345 26.7054 121.345 26.0954C121.345 24.8214 122.312 24.1845 124.245 24.1845H127.709V25.8531C127.44 26.5708 126.975 27.127 126.313 27.5218Z" fill="#1BF869"/>
<path d="M141.824 31.505L148.537 15.9758H145.315L140.777 26.6067L136.266 15.9758H132.775L139.031 30.4015L138.79 30.9667C138.467 31.6844 138.109 32.1958 137.716 32.5008C137.34 32.8058 136.856 32.9583 136.266 32.9583C135.818 32.9583 135.37 32.8686 134.923 32.6892C134.493 32.5098 134.117 32.2676 133.795 31.9625L132.453 34.4386C132.9 34.8513 133.473 35.1742 134.171 35.4075C134.869 35.6408 135.576 35.7574 136.292 35.7574C137.563 35.7574 138.646 35.4344 139.541 34.7885C140.437 34.1605 141.197 33.066 141.824 31.505Z" fill="#1BF869"/>
<path fill-rule="evenodd" clip-rule="evenodd" d="M163.721 23.2425C163.721 23.4757 163.703 23.8077 163.667 24.2383H152.416C152.613 25.2969 153.123 26.1402 153.947 26.7682C154.788 27.3782 155.827 27.6833 157.062 27.6833C158.637 27.6833 159.935 27.1629 160.955 26.1223L162.754 28.1946C162.11 28.9661 161.295 29.5493 160.311 29.944C159.326 30.3387 158.216 30.5361 156.981 30.5361C155.406 30.5361 154.019 30.2221 152.819 29.5941C151.62 28.9661 150.689 28.0959 150.027 26.9835C149.382 25.8531 149.06 24.5792 149.06 23.1618C149.06 21.7622 149.373 20.5063 150 19.3938C150.644 18.2635 151.53 17.3843 152.658 16.7563C153.786 16.1283 155.057 15.8143 156.471 15.8143C157.867 15.8143 159.111 16.1283 160.203 16.7563C161.313 17.3663 162.173 18.2365 162.781 19.3669C163.408 20.4794 163.721 21.7712 163.721 23.2425ZM153.732 19.4746C154.484 18.8286 155.397 18.5057 156.471 18.5057C157.563 18.5057 158.476 18.8286 159.21 19.4746C159.944 20.1205 160.382 20.9638 160.526 22.0045H152.39C152.551 20.9459 152.998 20.1026 153.732 19.4746Z" fill="#1BF869"/>
<path d="M175.242 15.8143C172.808 15.8143 171.107 16.5679 170.141 18.0751V15.9758H166.945V30.3477H170.302V23.3771C170.302 21.9417 170.669 20.8472 171.403 20.0936C172.137 19.3221 173.157 18.9363 174.464 18.9363C174.696 18.9363 174.956 18.9632 175.242 19.017V15.8143Z" fill="#1BF869"/>
</svg>
