<svg width="24" height="24" viewBox="0 0 24 24" fill="none" xmlns="http://www.w3.org/2000/svg">
<path d="M21.5 11.5V7C21.5 6.73478 21.3946 6.48043 21.2071 6.29289C21.0196 6.10536 20.7652 6 20.5 6H12L9.5 3H3.5C3.23478 3 2.98043 3.10536 2.79289 3.29289C2.60536 3.48043 2.5 3.73478 2.5 4V20C2.5 20.2652 2.60536 20.5196 2.79289 20.7071C2.98043 20.8946 3.23478 21 3.5 21H11" stroke="#ACACAC" stroke-width="2.5" stroke-linecap="round" stroke-linejoin="round"/>
<path d="M20 14L18 14.4845V19.25" stroke="#ACACAC" stroke-width="2.5" stroke-linecap="round" stroke-linejoin="round"/>
<path d="M16 21C17.1046 21 18 20.1046 18 19C18 17.8954 17.1046 17 16 17C14.8954 17 14 17.8954 14 19C14 20.1046 14.8954 21 16 21Z" stroke="#ACACAC" stroke-width="2.5" stroke-linecap="round" stroke-linejoin="round"/>
</svg>
