<svg width="44" height="44" viewBox="0 0 44 44" fill="none" xmlns="http://www.w3.org/2000/svg">
<rect width="44" height="44" rx="22" fill="url(#paint0_linear_55_119)"/>
<g clip-path="url(#clip0_55_119)">
<path d="M22 42C33.046 42 42 33.046 42 22C42 10.954 33.046 2 22 2C10.954 2 2 10.954 2 22C2 33.046 10.954 42 22 42Z" fill="white" fill-opacity="0.19"/>
<path d="M22 38.6666C31.205 38.6666 38.6667 31.205 38.6667 22C38.6667 12.795 31.205 5.33331 22 5.33331C12.795 5.33331 5.33333 12.795 5.33333 22C5.33333 31.205 12.795 38.6666 22 38.6666Z" fill="white"/>
<path d="M24 29V15H28V29H24ZM16 29V15H20V29H16Z" fill="black"/>
</g>
<defs>
<linearGradient id="paint0_linear_55_119" x1="22" y1="0" x2="22" y2="44" gradientUnits="userSpaceOnUse">
<stop stop-color="#1ED760"/>
<stop offset="1" stop-color="#14612F"/>
</linearGradient>
<clipPath id="clip0_55_119">
<rect x="2" y="2" width="40" height="40" rx="20" fill="white"/>
</clipPath>
</defs>
</svg>
