<svg width="32" height="32" viewBox="0 0 32 32" fill="none" xmlns="http://www.w3.org/2000/svg">
<g clip-path="url(#clip0_55_143)">
<path d="M16 32C24.8368 32 32 24.8368 32 16C32 7.1632 24.8368 0 16 0C7.1632 0 0 7.1632 0 16C0 24.8368 7.1632 32 16 32Z" fill="white" fill-opacity="0.2"/>
<path d="M16 29.3334C23.364 29.3334 29.3333 23.364 29.3333 16C29.3333 8.63602 23.364 2.66669 16 2.66669C8.636 2.66669 2.66667 8.63602 2.66667 16C2.66667 23.364 8.636 29.3334 16 29.3334Z" fill="white" fill-opacity="0.4"/>
<path opacity="0.5" d="M16 26.6666C21.8912 26.6666 26.6667 21.8912 26.6667 16C26.6667 10.1088 21.8912 5.33331 16 5.33331C10.1088 5.33331 5.33333 10.1088 5.33333 16C5.33333 21.8912 10.1088 26.6666 16 26.6666Z" fill="white"/>
<path d="M19 18.9597C19 19.3789 18.515 19.612 18.1877 19.3501L14.488 16.3904C14.2378 16.1903 14.2378 15.8097 14.488 15.6096L18.1877 12.6499C18.515 12.388 19 12.6211 19 13.0403V18.9597Z" fill="#1A1A1A"/>
<path d="M12 18.6666V13.3333" stroke="#1A1A1A" stroke-linecap="round"/>
</g>
<defs>
<clipPath id="clip0_55_143">
<rect width="32" height="32" rx="16" fill="white"/>
</clipPath>
</defs>
</svg>
